{"title":"[MARATHI] Pangira 2012 Xvid MP3 1CD DTHRip","uid":7471294,"size":838672642,"categoryP":"video","categoryS":"movies","magnet":"?xt=urn:btih:b0120a9ba64f94c2d68c6c97ce7477a1e345d878&amp;dn=%5BMARATHI%5D+Pangira+2012+Xvid+MP3+1CD+DTHRip&amp;tr=udp%3A%2F%2Ftracker.openbittorrent.com%3A80&amp;tr=udp%3A%2F%2Fopen.demonii.com%3A1337&amp;tr=udp%3A%2F%2Ftracker.coppersurfer.tk%3A6969&amp;tr=udp%3A%2F%2Fexodus.desync.com%3A6969","seeders":0,"leechers":1,"uploader":"SJonam","files":1,"time":1343159407,"description":" &lt;a href=&quot;\nhttp://desibbrg.org/images/66952052392581364616.gif&quot; rel=&quot;nofollow&quot; target=&quot;_NEW&quot;&gt;\nhttp://desibbrg.org/images/66952052392581364616.gif&lt;/a&gt;\n &lt;a href=&quot;\nhttp://desibbrg.org/images/08148463226990581773.jpg&quot; rel=&quot;nofollow&quot; target=&quot;_NEW&quot;&gt;\nhttp://desibbrg.org/images/08148463226990581773.jpg&lt;/a&gt;\n &lt;a href=&quot;\nhttp://desibbrg.org/images/82602123492967808559.png&quot; rel=&quot;nofollow&quot; target=&quot;_NEW&quot;&gt;\nhttp://desibbrg.org/images/82602123492967808559.png&lt;/a&gt;\n &lt;a href=&quot;\nhttp://desibbrg.org/images/85267061008325943061.png&quot; rel=&quot;nofollow&quot; target=&quot;_NEW&quot;&gt;\nhttp://desibbrg.org/images/85267061008325943061.png&lt;/a&gt;\n &lt;a href=&quot;\nhttp://desibbrg.org/images/86820826763399430992.png&quot; rel=&quot;nofollow&quot; target=&quot;_NEW&quot;&gt;\nhttp://desibbrg.org/images/86820826763399430992.png&lt;/a&gt;\n &lt;a href=&quot;\nhttp://desibbrg.org/images/04535783480966761265.png&quot; rel=&quot;nofollow&quot; target=&quot;_NEW&quot;&gt;\nhttp://desibbrg.org/images/04535783480966761265.png&lt;/a&gt;\n\n\nInfo - \nPresentor: IDream Production\nProducer: Shripal Morakhia\nDirector: Rajeev Patil\nStory: Vishwas Patil\nMusic: Vijay Narayan\nCamera: Amalendu Chaudhary\nCast: Meeta Sawarkar, Pramod Pawar, Kishor Kadam, Santosh Juwekar, Shashank Shende, Chinmay Mandlekar, Dhananjay Mandrekar, Narayan Jadhav, Smita Tambe, Hemangi Kavi, Sharvani Pillai, Prashant Patil, Nandinee Jog, Madhugandha Kulkarni, Girish Salvi, Ravi Tayade and Upendra Limaye, Sai Tamhankar.\n\n\nMedia Info - \nGeneral\nComplete name                    : Pangira [ 2012 ] - Xvid - MP3 - 1 CD DTHRip.avi\nFormat                           : AVI\nFormat/Info                      : Audio Video Interleave\nFile size                        : 800 MiB\nDuration                         : 1h 57mn\nOverall bit rate                 : 950 Kbps\nWriting library                  : MPlayer\n\nVideo\nID                               : 0\nFormat                           : MPEG-4 Visual\nFormat profile                   : Advanced Simple@L5\nFormat settings, BVOP            : Yes\nFormat settings, QPel            : No\nFormat settings, GMC             : No warppoints\nFormat settings, Matrix          : Default (H.263)\nCodec ID                         : XVID\nCodec ID/Hint                    : XviD\nDuration                         : 1h 57mn\nBit rate                         : 817 Kbps\nWidth                            : 640 pixels\nHeight                           : 296 pixels\nDisplay aspect ratio             : 2.2:1\nFrame rate                       : 25.000 fps\nColor space                      : YUV\nChroma subsampling               : 4:2:0\nBit depth                        : 8 bits\nScan type                        : Progressive\nCompression mode                 : Lossy\nBits/(Pixel*Frame)               : 0.172\nStream size                      : 688 MiB (86%)\nWriting library                  : XviD 1.1.2 (UTC 2006-11-01)\n\nAudio\nID                               : 1\nFormat                           : MPEG Audio\nFormat version                   : Version 1\nFormat profile                   : Layer 3\nMode                             : Joint stereo\nMode extension                   : MS Stereo\nCodec ID                         : 55\nCodec ID/Hint                    : MP3\nDuration                         : 1h 57mn\nBit rate mode                    : Constant\nBit rate                         : 128 Kbps\nChannel(s)                       : 2 channels\nSampling rate                    : 44.1 KHz\nCompression mode                 : Lossy\nDelay relative to video          : 40ms\nStream size                      : 108 MiB (13%)\nAlignment                        : Split accross interleaves\nInterleave, duration             : 500 ms (12.50 video frames)\nInterleave, preload duration     : 500 ms\n\nRipper : Mr. Cool\n\nSeeding 24x7... Extreme Seeding...\n\n\nEnjoy!\n","torrent":{"xt":"urn:btih:b0120a9ba64f94c2d68c6c97ce7477a1e345d878","amp;dn":"%5BMARATHI%5D+Pangira+2012+Xvid+MP3+1CD+DTHRip","amp;tr":["udp%3A%2F%2Ftracker.openbittorrent.com%3A80","udp%3A%2F%2Fopen.demonii.com%3A1337","udp%3A%2F%2Ftracker.coppersurfer.tk%3A6969","udp%3A%2F%2Fexodus.desync.com%3A6969"],"infoHash":"b0120a9ba64f94c2d68c6c97ce7477a1e345d878","infoHashBuffer":{"type":"Buffer","data":[176,18,10,155,166,79,148,194,214,140,108,151,206,116,119,161,227,69,216,120]},"announce":[],"urlList":[]}}